<svg xmlns="http://www.w3.org/2000/svg" viewBox="0 0 100 125">
  <defs>
    <radialGradient id="g" cx="40%" cy="35%" r="65%" fx="38%" fy="30%">
      <stop offset="0%"   stop-color="#64B8FF"/>
      <stop offset="40%"  stop-color="#1E72E8"/>
      <stop offset="80%"  stop-color="#0D41A0"/>
      <stop offset="100%" stop-color="#082880"/>
    </radialGradient>
    <linearGradient id="s" x1="0" y1="0" x2="1" y2="1">
      <stop offset="0%"   stop-color="#4FC3F7"/>
      <stop offset="100%" stop-color="#0A2A7A"/>
    </linearGradient>
    <filter id="sh" x="-15%" y="-10%" width="130%" height="135%">
      <feDropShadow dx="0" dy="3" stdDeviation="3" flood-color="#0A2A7A" flood-opacity="0.4"/>
    </filter>
  </defs>

  <!-- Pin body -->
  <path
    d="M50 3 C27 3 9 21 9 44 C9 67 30 83 50 108 C70 83 91 67 91 44 C91 21 73 3 50 3Z"
    fill="url(#g)" stroke="url(#s)" stroke-width="1.2" filter="url(#sh)"
  />

  <!-- Earth grid lines -->
  <g stroke="rgba(255,255,255,0.18)" stroke-width="1" fill="none">
    <ellipse cx="50" cy="44" rx="39" ry="11"/>
    <ellipse cx="50" cy="44" rx="36" ry="24"/>
    <ellipse cx="50" cy="44" rx="11" ry="39"/>
    <ellipse cx="50" cy="44" rx="24" ry="39" transform="rotate(35 50 44)"/>
  </g>

  <!-- Bus body -->
  <rect x="25" y="27" width="50" height="30" rx="6" fill="white"/>
  <!-- Roof ridge -->
  <rect x="27" y="24" width="46" height="6" rx="3" fill="white"/>
  <!-- Windows -->
  <rect x="59" y="32" width="11" height="11" rx="2" fill="rgba(100,180,255,0.85)"/>
  <rect x="28" y="32" width="9"  height="9"  rx="2" fill="rgba(100,180,255,0.85)"/>
  <rect x="40" y="32" width="9"  height="9"  rx="2" fill="rgba(100,180,255,0.85)"/>
  <rect x="52" y="32" width="5"  height="9"  rx="2" fill="rgba(100,180,255,0.85)"/>
  <!-- Bumper -->
  <rect x="25" y="54" width="50" height="3" rx="1.5" fill="rgba(255,255,255,0.5)"/>
  <!-- Wheels -->
  <circle cx="35" cy="61" r="5.5" fill="rgba(30,50,120,0.7)"/>
  <circle cx="35" cy="61" r="2.5" fill="white"/>
  <circle cx="65" cy="61" r="5.5" fill="rgba(30,50,120,0.7)"/>
  <circle cx="65" cy="61" r="2.5" fill="white"/>

  <!-- WiFi arcs -->
  <g stroke="#29B6F6" stroke-width="2.5" fill="none" stroke-linecap="round">
    <path d="M80 12 Q88 8 90 16"/>
    <path d="M83  7 Q94 2 97 14"/>
  </g>
</svg>
